<svg xmlns="http://www.w3.org/2000/svg" viewBox="0 0 24 24" fill="none" stroke="currentColor" stroke-width="1.75" stroke-linecap="round" stroke-linejoin="round"><path d="M10.25 5L10.25 4.45L10.27 4.23L10.29 4.06L10.32 3.92L10.36 3.8L10.4 3.7L10.46 3.61L10.53 3.53L10.61 3.46L10.7 3.4L10.8 3.36L10.92 3.32L11.06 3.29L11.23 3.27L11.45 3.25L12 3.25L12 3.25L12.55 3.25L12.77 3.27L12.94 3.29L13.08 3.32L13.2 3.36L13.3 3.4L13.39 3.46L13.47 3.53L13.54 3.61L13.6 3.7L13.64 3.8L13.68 3.92L13.71 4.06L13.73 4.23L13.75 4.45L13.75 5L13.75 5L13.75 5.55L13.73 5.77L13.71 5.94L13.68 6.08L13.64 6.2L13.6 6.3L13.54 6.39L13.47 6.47L13.39 6.54L13.3 6.6L13.2 6.64L13.08 6.68L12.94 6.71L12.77 6.73L12.55 6.75L12 6.75L12 6.75L11.45 6.75L11.23 6.73L11.06 6.71L10.92 6.68L10.8 6.64L10.7 6.6L10.61 6.54L10.53 6.47L10.46 6.39L10.4 6.3L10.36 6.2L10.32 6.08L10.29 5.94L10.27 5.77L10.25 5.55L10.25 5Z" fill="currentColor" stroke="none"/><path d="M10.25 12L10.25 11.45L10.27 11.23L10.29 11.06L10.32 10.92L10.36 10.8L10.4 10.7L10.46 10.61L10.53 10.53L10.61 10.46L10.7 10.4L10.8 10.36L10.92 10.32L11.06 10.29L11.23 10.27L11.45 10.25L12 10.25L12 10.25L12.55 10.25L12.77 10.27L12.94 10.29L13.08 10.32L13.2 10.36L13.3 10.4L13.39 10.46L13.47 10.53L13.54 10.61L13.6 10.7L13.64 10.8L13.68 10.92L13.71 11.06L13.73 11.23L13.75 11.45L13.75 12L13.75 12L13.75 12.55L13.73 12.77L13.71 12.94L13.68 13.08L13.64 13.2L13.6 13.3L13.54 13.39L13.47 13.47L13.39 13.54L13.3 13.6L13.2 13.64L13.08 13.68L12.94 13.71L12.77 13.73L12.55 13.75L12 13.75L12 13.75L11.45 13.75L11.23 13.73L11.06 13.71L10.92 13.68L10.8 13.64L10.7 13.6L10.61 13.54L10.53 13.47L10.46 13.39L10.4 13.3L10.36 13.2L10.32 13.08L10.29 12.94L10.27 12.77L10.25 12.55L10.25 12Z" fill="currentColor" stroke="none"/><path d="M10.25 19L10.25 18.45L10.27 18.23L10.29 18.06L10.32 17.92L10.36 17.8L10.4 17.7L10.46 17.61L10.53 17.53L10.61 17.46L10.7 17.4L10.8 17.36L10.92 17.32L11.06 17.29L11.23 17.27L11.45 17.25L12 17.25L12 17.25L12.55 17.25L12.77 17.27L12.94 17.29L13.08 17.32L13.2 17.36L13.3 17.4L13.39 17.46L13.47 17.53L13.54 17.61L13.6 17.7L13.64 17.8L13.68 17.92L13.71 18.06L13.73 18.23L13.75 18.45L13.75 19L13.75 19L13.75 19.55L13.73 19.77L13.71 19.94L13.68 20.08L13.64 20.2L13.6 20.3L13.54 20.39L13.47 20.47L13.39 20.54L13.3 20.6L13.2 20.64L13.08 20.68L12.94 20.71L12.77 20.73L12.55 20.75L12 20.75L12 20.75L11.45 20.75L11.23 20.73L11.06 20.71L10.92 20.68L10.8 20.64L10.7 20.6L10.61 20.54L10.53 20.47L10.46 20.39L10.4 20.3L10.36 20.2L10.32 20.08L10.29 19.94L10.27 19.77L10.25 19.55L10.25 19Z" fill="currentColor" stroke="none"/></svg>
