<svg xmlns="http://www.w3.org/2000/svg" viewBox="0 0 24 24" fill="none" stroke="currentColor" stroke-width="1.75" stroke-linecap="round" stroke-linejoin="round"><path d="M2 11.45L2.01 9.9L2.05 9.26L2.11 8.78L2.19 8.39L2.3 8.05L2.44 7.76L2.6 7.51L2.79 7.29L3.01 7.1L3.26 6.94L3.55 6.8L3.89 6.69L4.28 6.61L4.76 6.55L5.4 6.51L6.95 6.5L17.05 6.5L18.6 6.51L19.24 6.55L19.72 6.61L20.11 6.69L20.45 6.8L20.74 6.94L20.99 7.1L21.21 7.29L21.4 7.51L21.56 7.76L21.7 8.05L21.81 8.39L21.89 8.78L21.95 9.26L21.99 9.9L22 11.45L22 12.55L21.99 14.1L21.95 14.74L21.89 15.22L21.81 15.61L21.7 15.95L21.56 16.24L21.4 16.49L21.21 16.71L20.99 16.9L20.74 17.06L20.45 17.2L20.11 17.31L19.72 17.39L19.24 17.45L18.6 17.49L17.05 17.5L6.95 17.5L5.4 17.49L4.76 17.45L4.28 17.39L3.89 17.31L3.55 17.2L3.26 17.06L3.01 16.9L2.79 16.71L2.6 16.49L2.44 16.24L2.3 15.95L2.19 15.61L2.11 15.22L2.05 14.74L2.01 14.1L2 12.55Z"/><path d="M2 13L22 13"/><path d="M17.62 15.25L17.63 14.98L17.63 14.86L17.64 14.78L17.66 14.71L17.68 14.65L17.7 14.6L17.73 14.55L17.76 14.51L17.8 14.48L17.85 14.45L17.9 14.43L17.96 14.41L18.03 14.39L18.11 14.38L18.23 14.38L18.5 14.38L18.5 14.38L18.77 14.38L18.89 14.38L18.97 14.39L19.04 14.41L19.1 14.43L19.15 14.45L19.2 14.48L19.24 14.51L19.27 14.55L19.3 14.6L19.32 14.65L19.34 14.71L19.36 14.78L19.37 14.86L19.37 14.98L19.38 15.25L19.38 15.25L19.37 15.52L19.37 15.64L19.36 15.72L19.34 15.79L19.32 15.85L19.3 15.9L19.27 15.95L19.24 15.99L19.2 16.02L19.15 16.05L19.1 16.07L19.04 16.09L18.97 16.11L18.89 16.12L18.77 16.12L18.5 16.12L18.5 16.12L18.23 16.12L18.11 16.12L18.03 16.11L17.96 16.09L17.9 16.07L17.85 16.05L17.8 16.02L17.76 15.99L17.73 15.95L17.7 15.9L17.68 15.85L17.66 15.79L17.64 15.72L17.63 15.64L17.63 15.52L17.62 15.25Z" fill="currentColor" stroke="none"/></svg>
