<svg xmlns="http://www.w3.org/2000/svg" viewBox="0 0 24 24" fill="none" stroke="currentColor" stroke-width="1.75" stroke-linecap="round" stroke-linejoin="round"><path d="M12 3C6.5 3 2.5 7 2.5 12C2.5 17 6.5 21 11.5 21C13 21 13.8 20 13.3 18.6C12.8 17.2 13.6 16 15.2 16H17.5C19.9 16 21.5 14.4 21.5 12C21.5 7 17.3 3 12 3Z"/><path d="M6.3 11.25L6.3 10.87L6.31 10.72L6.33 10.6L6.35 10.51L6.37 10.43L6.41 10.36L6.44 10.29L6.49 10.24L6.54 10.19L6.61 10.16L6.68 10.12L6.76 10.1L6.85 10.08L6.97 10.06L7.12 10.05L7.5 10.05L7.5 10.05L7.88 10.05L8.03 10.06L8.15 10.08L8.24 10.1L8.32 10.12L8.39 10.16L8.46 10.19L8.51 10.24L8.56 10.29L8.59 10.36L8.63 10.43L8.65 10.51L8.67 10.6L8.69 10.72L8.7 10.87L8.7 11.25L8.7 11.25L8.7 11.63L8.69 11.78L8.67 11.9L8.65 11.99L8.63 12.07L8.59 12.14L8.56 12.21L8.51 12.26L8.46 12.31L8.39 12.34L8.32 12.38L8.24 12.4L8.15 12.42L8.03 12.44L7.88 12.45L7.5 12.45L7.5 12.45L7.12 12.45L6.97 12.44L6.85 12.42L6.76 12.4L6.68 12.38L6.61 12.34L6.54 12.31L6.49 12.26L6.44 12.21L6.41 12.14L6.37 12.07L6.35 11.99L6.33 11.9L6.31 11.78L6.3 11.63L6.3 11.25Z" fill="currentColor" stroke="none"/><path d="M8.55 7L8.55 6.62L8.56 6.47L8.58 6.35L8.6 6.26L8.62 6.18L8.66 6.11L8.69 6.04L8.74 5.99L8.79 5.94L8.86 5.91L8.93 5.87L9.01 5.85L9.1 5.83L9.22 5.81L9.37 5.8L9.75 5.8L9.75 5.8L10.13 5.8L10.28 5.81L10.4 5.83L10.49 5.85L10.57 5.87L10.64 5.91L10.71 5.94L10.76 5.99L10.81 6.04L10.84 6.11L10.88 6.18L10.9 6.26L10.92 6.35L10.94 6.47L10.95 6.62L10.95 7L10.95 7L10.95 7.38L10.94 7.53L10.92 7.65L10.9 7.74L10.88 7.82L10.84 7.89L10.81 7.96L10.76 8.01L10.71 8.06L10.64 8.09L10.57 8.13L10.49 8.15L10.4 8.17L10.28 8.19L10.13 8.2L9.75 8.2L9.75 8.2L9.37 8.2L9.22 8.19L9.1 8.17L9.01 8.15L8.93 8.13L8.86 8.09L8.79 8.06L8.74 8.01L8.69 7.96L8.66 7.89L8.62 7.82L8.6 7.74L8.58 7.65L8.56 7.53L8.55 7.38L8.55 7Z" fill="currentColor" stroke="none"/><path d="M13.05 6.75L13.05 6.37L13.06 6.22L13.08 6.1L13.1 6.01L13.12 5.93L13.16 5.86L13.19 5.79L13.24 5.74L13.29 5.69L13.36 5.66L13.43 5.62L13.51 5.6L13.6 5.58L13.72 5.56L13.87 5.55L14.25 5.55L14.25 5.55L14.63 5.55L14.78 5.56L14.9 5.58L14.99 5.6L15.07 5.62L15.14 5.66L15.21 5.69L15.26 5.74L15.31 5.79L15.34 5.86L15.38 5.93L15.4 6.01L15.42 6.1L15.44 6.22L15.45 6.37L15.45 6.75L15.45 6.75L15.45 7.13L15.44 7.28L15.42 7.4L15.4 7.49L15.38 7.57L15.34 7.64L15.31 7.71L15.26 7.76L15.21 7.81L15.14 7.84L15.07 7.88L14.99 7.9L14.9 7.92L14.78 7.94L14.63 7.95L14.25 7.95L14.25 7.95L13.87 7.95L13.72 7.94L13.6 7.92L13.51 7.9L13.43 7.88L13.36 7.84L13.29 7.81L13.24 7.76L13.19 7.71L13.16 7.64L13.12 7.57L13.1 7.49L13.08 7.4L13.06 7.28L13.05 7.13L13.05 6.75Z" fill="currentColor" stroke="none"/><path d="M16.05 10L16.05 9.62L16.06 9.47L16.08 9.35L16.1 9.26L16.12 9.18L16.16 9.11L16.19 9.04L16.24 8.99L16.29 8.94L16.36 8.91L16.43 8.87L16.51 8.85L16.6 8.83L16.72 8.81L16.87 8.8L17.25 8.8L17.25 8.8L17.63 8.8L17.78 8.81L17.9 8.83L17.99 8.85L18.07 8.87L18.14 8.91L18.21 8.94L18.26 8.99L18.31 9.04L18.34 9.11L18.38 9.18L18.4 9.26L18.42 9.35L18.44 9.47L18.45 9.62L18.45 10L18.45 10L18.45 10.38L18.44 10.53L18.42 10.65L18.4 10.74L18.38 10.82L18.34 10.89L18.31 10.96L18.26 11.01L18.21 11.06L18.14 11.09L18.07 11.13L17.99 11.15L17.9 11.17L17.78 11.19L17.63 11.2L17.25 11.2L17.25 11.2L16.87 11.2L16.72 11.19L16.6 11.17L16.51 11.15L16.43 11.13L16.36 11.09L16.29 11.06L16.24 11.01L16.19 10.96L16.16 10.89L16.12 10.82L16.1 10.74L16.08 10.65L16.06 10.53L16.05 10.38L16.05 10Z" fill="currentColor" stroke="none"/></svg>
